# xmcd
#
# Track frame offsets:
#	183
#	11325
#	22048
#	33233
#	46163
#	59788
#	73423
#	86888
#	100548
#	112768
#	124235
#	137893
#	149390
#	159378
#
# Disc length: 2272 seconds
#
# Revision: 3
# Processed by: cddbd v1.5.2PL0 Copyright (c) Steve Scherf et al.
# Submitted via: audiograbber 1.83.01
#
DISCID=c108de0e
DTITLE=John Lee Hooker - Blues collection
DYEAR=1991
DGENRE=Blues
TTITLE0=Big Fine Woman
TTITLE1=Keep Your Hands To Yourself
TTITLE2=What Do You Say
TTITLE3=Lost A Good Girl
TTITLE4=Ground Hog Blues
TTITLE5=Driftin' From Door To Door
TTITLE6=I Love You Baby
TTITLE7=The Syndicator
TTITLE8=Boogie Woogie All Night Long
TTITLE9=Good Rockin' Mama
TTITLE10=House Rent Boogie
TTITLE11=Boogie Chillum
TTITLE12=Dimples
TTITLE13=Boom Boom
EXTD=
EXTT0=
EXTT1=
EXTT2=
EXTT3=
EXTT4=
EXTT5=
EXTT6=
EXTT7=
EXTT8=
EXTT9=
EXTT10=
EXTT11=
EXTT12=
EXTT13=
PLAYORDER=
